HIERARCHY
ROOT ui
{
	 OFFSET 0 0 0
	 CHANNELS 3 XPosition YPosition Z Position
	 EndSite
	 {
	 OFFSET 0 -1 0
	 }
}
ROOT li
{
	 OFFSET 0 0 0
	 CHANNELS 3 XPosition YPosition Z Position
	 EndSite
	 {
	 OFFSET 0 -1 0
	 }
}
ROOT ul
{
	 OFFSET 0 0 0
	 CHANNELS 3 XPosition YPosition Z Position
	 EndSite
	 {
	 OFFSET 0 -1 0
	 }
}
ROOT ll
{
	 OFFSET 0 0 0
	 CHANNELS 3 XPosition YPosition Z Position
	 EndSite
	 {
	 OFFSET 0 -1 0
	 }
}
ROOT tt
{
	 OFFSET 0 0 0
	 CHANNELS 3 XPosition YPosition Z Position
	 EndSite
	 {
	 OFFSET 0 -1 0
	 }
}
ROOT tb
{
	 OFFSET 0 0 0
	 CHANNELS 3 XPosition YPosition Z Position
	 EndSite
	 {
	 OFFSET 0 -1 0
	 }
}
ROOT td
{
	 OFFSET 0 0 0
	 CHANNELS 3 XPosition YPosition Z Position
	 EndSite
	 {
	 OFFSET 0 -1 0
	 }
}
ROOT v
{
	 OFFSET 0 0 0
	 CHANNELS 3 XPosition YPosition Z Position
	 EndSite
	 {
	 OFFSET 0 -1 0
	 }
}
ROOT bn
{
	 OFFSET 0 0 0
	 CHANNELS 3 XPosition YPosition Z Position
	 EndSite
	 {
	 OFFSET 0 -1 0
	 }
}
MOTION
Frames: 13
Frame Time: 0.002
0.006465466976165771	8.400800228118896E-4	0		0.4194969177246094	-2.282158203125	0		-0.9694923095703125	0.10997933197021484	0		-0.715725830078125	-2.232748779296875	0		1.574576904296875	-0.5435968627929687	0		3.21949365234375	0.1146385498046875	0		4.53124560546875	0.13760609436035157	0		5.5980087890625	0.06660330200195312	0		-0.10990647888183594	5.9515029296875	0		
0.017840959548950194	0.012999385833740234	0		0.4259274291992188	-2.27387060546875	0		-0.947372314453125	0.10985689544677735	0		-0.7092982788085938	-2.224529052734375	0		1.614752685546875	-0.542937744140625	0		3.19191162109375	0.1297905731201172	0		4.52451416015625	0.14540625	0		5.59132275390625	0.07646664428710938	0		-0.1283113250732422	5.943255859375	0		
0.009892415046691895	0.005569083213806152	0		0.4440667724609375	-2.283809326171875	0		-0.933146728515625	0.11091715240478515	0		-0.6919976806640625	-2.226515625	0		1.6040423583984376	-0.54021484375	0		3.181874755859375	0.11858856964111328	0		4.5264326171875	0.13203701782226562	0		5.584349609375	0.06834347534179687	0		-0.1314453582763672	5.94371240234375	0		
0.033182846069335935	0.004524551868438721	0		0.4144989013671875	-2.28374609375	0		-0.9348570556640625	0.1103297119140625	0		-0.7315667114257812	-2.226312744140625	0		1.602369140625	-0.5406575317382812	0		3.18912109375	0.11605242919921875	0		4.51686572265625	0.1389231414794922	0		5.58843603515625	0.05800740814208984	0		-0.14771041870117188	5.93245947265625	0		
-0.005438831806182862	0.002772836923599243	0		0.43996884155273436	-2.287781005859375	0		-0.9405321655273438	0.10585282135009766	0		-0.6970814208984375	-2.22959423828125	0		1.600810302734375	-0.5410778198242188	0		3.20837939453125	0.10829242706298828	0		4.52110546875	0.13054176330566405	0		5.5910068359375	0.06572213745117188	0		-0.1344228973388672	5.94163525390625	0		
0.030131322860717773	0.003541351079940796	0		0.41373190307617186	-2.2827294921875	0		-0.962097900390625	0.10073293304443359	0		-0.7215047607421875	-2.233640625	0		1.599375732421875	-0.5414732055664062	0		3.17636474609375	0.13060633850097655	0		4.5137998046875	0.13841859436035156	0		5.58954052734375	0.06553429412841796	0		-0.13619459533691405	5.94114990234375	0		
0.03186015319824219	0.006034615993499756	0		0.4405067138671875	-2.283723876953125	0		-0.9392564697265625	0.10875049591064453	0		-0.7227266235351563	-2.234122802734375	0		1.5621798095703125	-0.536112548828125	0		3.200717529296875	0.11479090118408203	0		4.52445947265625	0.13794947814941405	0		5.57824853515625	0.06756360626220703	0		-0.1378166961669922	5.9406962890625	0		
0.0026059861183166506	0.0031897358894348144	0		0.41141796875	-2.28355078125	0		-0.9764529418945312	0.10902246856689453	0		-0.7346592407226562	-2.226348388671875	0		1.59689697265625	-0.5421820678710938	0		3.202614013671875	0.11946202850341797	0		4.51709375	0.1298659210205078	0		5.58704443359375	0.06720285034179688	0		-0.14026687622070313	5.94129638671875	0		
0.0015350500345230104	0.00280984902381897	0		0.43533795166015626	-2.2894169921875	0		-0.9456156616210938	0.1039557113647461	0		-0.7376755981445312	-2.22871875	0		1.556877197265625	-0.54070703125	0		3.188480224609375	0.11648096466064453	0		4.518037109375	0.13063691711425782	0		5.57117578125	0.07736064910888672	0		-0.14256924438476562	5.9419306640625	0		
-0.006534128189086914	-0.0033948259353637697	0		0.4075437927246094	-2.28620361328125	0		-0.9825418701171875	0.10529705047607422	0		-0.7405779418945313	-2.231053955078125	0		1.5918406982421875	-0.5467177734375	0		3.17662890625	0.12147920227050782	0		4.4982275390625	0.13784793090820313	0		5.58081787109375	0.05701369857788086	0		-0.14179171752929687	5.9395380859375	0		
-2.5033700466156004E-4	0.0021479060649871825	0		0.408829833984375	-2.284544677734375	0		-0.9675051879882812	0.098626220703125	0		-0.7372540283203125	-2.2274765625	0		1.5441146240234376	-0.5420310668945313	0		3.205601806640625	0.11167620849609375	0		4.5063447265625	0.13551329040527343	0		5.584140625	0.0648163833618164	0		-0.12668224334716796	5.94689453125	0		
0.002100838899612427	0.005802795886993408	0		0.412275390625	-2.279896728515625	0		-0.9659962768554687	0.11026805877685547	0		-0.687040771484375	-2.234807861328125	0		1.596453369140625	-0.5403298950195312	0		3.17917626953125	0.12701582336425782	0		4.51964892578125	0.13709451293945313	0		5.57861181640625	0.07481272888183593	0		-0.14376199340820311	5.93892919921875	0		
0.023387754440307617	0.001107867956161499	0		0.43356942749023436	-2.287578857421875	0		-0.9446923828125	0.10654443359375	0		-0.73847265625	-2.22806103515625	0		1.592781494140625	-0.5434766845703125	0		3.1703251953125	0.11601749420166016	0		4.5190166015625	0.13697299194335938	0		5.57282177734375	0.0668242645263672	0		-0.14456509399414064	5.93867041015625	0		
